<svg width="104" height="104" viewBox="0 0 104 104" fill="none" xmlns="http://www.w3.org/2000/svg">
<g id="Logo" clip-path="url(#clip0_3_353)">
<g id="Group">
<path id="Vector" d="M52 21.0032C32.1297 21.0032 14.1103 31.8744 0.813747 49.5322C-0.271249 50.9788 -0.271249 52.9999 0.813747 54.4466C14.1103 72.1256 32.1297 82.9968 52 82.9968C71.8703 82.9968 89.8897 72.1256 103.186 54.4678C104.271 53.0212 104.271 51.0001 103.186 49.5535C89.8897 31.8744 71.8703 21.0032 52 21.0032ZM53.4254 73.8276C40.2352 74.6573 29.3427 63.786 30.1724 50.5746C30.8532 39.6821 39.6821 30.8532 50.5746 30.1724C63.7648 29.3427 74.6573 40.214 73.8276 53.4254C73.1255 64.2966 64.2966 73.1255 53.4254 73.8276ZM52.7659 63.7435C45.6602 64.1903 39.7885 58.3398 40.2565 51.2341C40.6182 45.3624 45.3837 40.6182 51.2554 40.2353C58.361 39.7885 64.2328 45.639 63.7648 52.7446C63.3818 58.6376 58.6163 63.3818 52.7659 63.7435Z" fill="#6C63FF"/>
</g>
</g>
<defs>
<clipPath id="clip0_3_353">
<rect width="104" height="104" fill="white"/>
</clipPath>
</defs>
</svg>
